<?xml version="1.0" encoding="utf-8"?>
<svg xmlns="http://www.w3.org/2000/svg" width="34" height="30" viewBox="0 0 34 30" fill="none">
    <path d="M32.65 7.80995C32.92 8.32995 33.17 8.86995 33.38 9.41995L29.94 10.2999C28.67 5.74995 25.43 2.00995 21.21 0.0699463C26.05 0.559946 30.34 3.41995 32.65 7.79995V7.80995Z" fill="white"></path>
    <path d="M0 14.57C0 6.54 6.54 0 14.57 0C15.39 0 16.19 0.07 16.97 0.2C16.99 0.2 17 0.2 17.02 0.21C18.13 0.4 19.2 0.72 20.22 1.15C25.38 3.37 28.96 8.55 29.14 14.57C29.17 15.4 29.03 16.22 28.84 16.98C28.67 17.64 28.42 18.27 28.11 18.88C26.5 22.01 23.33 23.96 19.83 23.99C23.17 22.11 25.36 18.51 25.36 14.57C25.36 8.62 20.52 3.78 14.57 3.78C14.57 3.78 14.56 3.78 14.55 3.78C14.55 3.78 14.54 3.78 14.53 3.78C14.51 3.78 14.49 3.78 14.48 3.78C14.38 3.78 14.28 3.78 14.17 3.78C14.04 3.78 13.92 3.79 13.79 3.8C13.77 3.8 13.75 3.8 13.73 3.8C11.46 3.97 9.29 4.86 7.55 6.34C5.62 7.98 4.33 10.25 3.9 12.72C3.9 12.73 3.9 12.75 3.9 12.76C3.87 12.99 3.86 13.21 3.84 13.44C3.8 13.81 3.78 14.18 3.78 14.56C3.78 14.61 3.78 14.67 3.8 14.72C3.86 21.08 7.66 26.56 13.11 29.06C5.76 28.33 0 22.11 0 14.57Z" fill="white"></path>
    <path d="M32.69 21.26C30.17 26.12 25.21 29.15 19.74 29.15C11.7 29.15 5.17004 22.61 5.17004 14.58C5.17004 14.26 5.18004 13.93 5.20004 13.6C5.69004 8.90004 9.65004 5.22004 14.46 5.17004C11.12 7.05004 8.94004 10.62 8.94004 14.59C8.94004 20.54 13.78 25.38 19.73 25.38C23.78 25.38 27.46 23.14 29.33 19.52C29.61 18.97 29.85 18.41 30.03 17.82L33.66 18.87C33.41 19.69 33.08 20.5 32.68 21.26H32.69Z" fill="white"></path>
</svg>