<svg width="20" height="20" viewBox="0 0 20 20" fill="none" xmlns="http://www.w3.org/2000/svg">
<path d="M20 10C20 15.5228 15.5228 20 10 20C8.57779 20 7.22492 19.7031 6 19.1679C2.46819 17.6248 0 14.1006 0 10C0 5.89936 2.46819 2.3752 6 0.832087C7.22492 0.296895 8.57779 0 10 0C15.5228 0 20 4.47715 20 10Z" fill="white"/>
<path d="M6.2069 0.689453C2.5533 2.25654 0 5.83545 0 9.9998C0 14.1641 2.5533 17.7431 6.2069 19.3101V0.689453Z" fill="#0E76D7"/>
<path d="M13.7931 19.3105C17.4467 17.7435 20 14.1645 20 10.0002C20 5.83586 17.4467 2.25694 13.7931 0.689857L13.7931 19.3105Z" fill="#EB5757"/>
</svg>
