<svg width="50" height="50" viewBox="0 0 50 50" fill="none" xmlns="http://www.w3.org/2000/svg">
<g clip-path="url(#clip0_2_2829)">
<path d="M25.0542 50C11.2999 50 0.108322 38.7841 0.108322 25C0.108322 11.2159 11.2945 0 25.0542 0C38.8138 0 50 11.2159 50 25C50 38.7841 38.8084 50 25.0542 50ZM25.0542 5.28353C14.2053 5.28353 5.38041 14.1276 5.38041 25C5.38041 35.8724 14.2053 44.7165 25.0542 44.7165C35.903 44.7165 44.7279 35.8724 44.7279 25C44.7279 14.1276 35.903 5.28353 25.0542 5.28353Z" fill="#0E76D7"/>
<path d="M30.3317 31.543C30.3317 31.543 29.3306 34.2693 25.3262 34.2693H21.8822V19.591C21.8822 18.446 22.8833 17.3664 24.0313 17.3664H24.0585V14.0948H13.7211V17.3664H13.6939C14.8365 17.3664 15.8974 18.446 15.8974 19.591V32.0447C15.8974 33.1897 14.8365 34.2639 13.6939 34.2639H13.7211V39.1712H32.7637V31.5376H30.3317V31.543Z" fill="#0E76D7"/>
<path d="M27.6004 9.30212C24.57 9.30212 21.768 10.2781 19.5046 11.9139H26.2294V18.8496C24.5971 19.1058 24.0531 20.2073 24.0531 21.5322V32.0884H25.9573C27.7147 32.0884 29.1347 30.9979 29.2272 29.3621H34.9346V34.3785C38.7431 31.9412 41.1316 27.7209 41.1316 22.9608C41.1316 15.4363 35.1087 9.30212 27.595 9.30212H27.6004Z" fill="#F2994A"/>
</g>
<defs>
<clipPath id="clip0_2_2829">
<rect width="50" height="50" fill="white"/>
</clipPath>
</defs>
</svg>
