<svg width="181" height="30" viewBox="0 0 181 30" fill="none" xmlns="http://www.w3.org/2000/svg">
<g clip-path="url(#clip0_2_2725)">
<path d="M46.33 6.73C48.14 4.97 50.35 4.09 52.95 4.09C55.55 4.09 57.82 4.95 59.6 6.68C61.37 8.4 62.26 10.62 62.26 13.33C62.26 16.04 61.36 18.24 59.56 19.98C57.76 21.72 55.56 22.59 52.95 22.59C50.34 22.59 48.09 21.74 46.3 20.03C44.51 18.32 43.61 16.09 43.61 13.33C43.61 10.57 44.51 8.49 46.32 6.73H46.33ZM48.39 18.13C49.6 19.37 51.12 19.98 52.96 19.98C54.8 19.98 56.31 19.36 57.51 18.13C58.71 16.89 59.31 15.29 59.31 13.32C59.31 11.35 58.71 9.75 57.51 8.53C56.31 7.3 54.79 6.69 52.96 6.69C51.13 6.69 49.6 7.3 48.39 8.53C47.18 9.76 46.57 11.36 46.57 13.32C46.57 15.28 47.18 16.89 48.39 18.13Z" fill="white"/>
<path d="M64.35 9.53999H67.07V11.23C67.1 11.18 67.16 11.11 67.23 11.02C67.3 10.93 67.47 10.77 67.73 10.55C67.99 10.33 68.28 10.14 68.59 9.96999C68.9 9.79999 69.32 9.64999 69.85 9.49999C70.38 9.34999 70.93 9.28999 71.5 9.28999C73.32 9.28999 74.8 9.88999 75.95 11.09C77.1 12.29 77.68 13.88 77.68 15.85C77.68 17.92 77.1 19.54 75.95 20.72C74.8 21.9 73.28 22.49 71.4 22.49C70.83 22.49 70.29 22.42 69.79 22.29C69.29 22.16 68.87 21.99 68.55 21.8C68.23 21.61 67.95 21.42 67.72 21.23C67.48 21.04 67.32 20.89 67.22 20.75L67.07 20.55V27.16H64.35V9.53999ZM73.87 12.83C73.16 12.03 72.21 11.63 71.03 11.63C69.85 11.63 68.84 12.03 68.1 12.82C67.36 13.61 66.99 14.64 66.99 15.9C66.99 17.16 67.36 18.25 68.1 19C68.84 19.76 69.84 20.14 71.1 20.14C72.28 20.14 73.21 19.75 73.9 18.97C74.59 18.19 74.93 17.17 74.93 15.93C74.93 14.69 74.57 13.64 73.86 12.84L73.87 12.83Z" fill="white"/>
<path d="M91.3 20.36C91.25 20.43 91.18 20.51 91.09 20.6C91 20.69 90.79 20.86 90.46 21.12C90.13 21.37 89.78 21.6 89.4 21.79C89.02 21.98 88.52 22.16 87.9 22.32C87.28 22.48 86.63 22.56 85.96 22.56C83.76 22.56 82.05 21.96 80.83 20.77C79.61 19.58 79 17.95 79 15.9C79 13.85 79.61 12.36 80.84 11.12C82.07 9.88 83.62 9.27 85.48 9.27C87.53 9.27 89.13 9.93 90.29 11.24C91.44 12.55 92.02 14.29 92.02 16.46V16.91H81.83C81.91 17.8 82.29 18.58 82.95 19.24C83.61 19.9 84.64 20.24 86.02 20.24C86.74 20.24 87.41 20.1 88.03 19.82C88.65 19.54 89.08 19.27 89.33 19L89.73 18.6L91.32 20.37L91.3 20.36ZM89.16 14.81C89.06 13.97 88.69 13.22 88.06 12.56C87.43 11.9 86.57 11.58 85.47 11.58C84.37 11.58 83.5 11.91 82.88 12.56C82.27 13.22 81.91 13.96 81.81 14.81H89.15H89.16Z" fill="white"/>
<path d="M93.92 9.53999H96.64V11.41C96.67 11.36 96.72 11.29 96.78 11.2C96.84 11.11 96.97 10.94 97.18 10.71C97.39 10.47 97.62 10.27 97.87 10.09C98.12 9.90999 98.46 9.74999 98.88 9.60999C99.3 9.46999 99.75 9.39999 100.22 9.39999C101.63 9.39999 102.68 9.79999 103.35 10.61C104.02 11.42 104.36 12.49 104.36 13.84V22.29H101.64V14.39C101.64 12.61 100.89 11.72 99.39 11.72C98.45 11.72 97.75 12.04 97.31 12.68C96.86 13.32 96.64 14.12 96.64 15.08V22.3H93.92V9.55999V9.53999Z" fill="white"/>
<path d="M122.73 19.15C122.68 19.25 122.6 19.38 122.48 19.53C122.36 19.68 122.09 19.95 121.66 20.35C121.23 20.75 120.76 21.09 120.26 21.4C119.76 21.71 119.08 21.98 118.24 22.22C117.4 22.46 116.51 22.59 115.57 22.59C112.91 22.59 110.7 21.77 108.94 20.14C107.17 18.51 106.29 16.26 106.29 13.4C106.29 10.73 107.17 8.51 108.94 6.74C110.71 4.97 112.88 4.09 115.47 4.09C116.38 4.09 117.24 4.2 118.04 4.42C118.84 4.64 119.5 4.9 120.01 5.2C120.51 5.5 120.96 5.81 121.35 6.11C121.74 6.41 122.01 6.67 122.18 6.89L122.41 7.22L120.54 9.01C120.49 8.94 120.42 8.86 120.34 8.76C120.26 8.66 120.06 8.47 119.75 8.2C119.44 7.93 119.1 7.69 118.74 7.48C118.38 7.27 117.91 7.08 117.33 6.91C116.75 6.74 116.15 6.66 115.53 6.66C113.73 6.66 112.23 7.27 111.04 8.5C109.85 9.73 109.25 11.33 109.25 13.32C109.25 15.31 109.85 16.95 111.05 18.16C112.25 19.37 113.78 19.98 115.63 19.98C116.3 19.98 116.94 19.89 117.53 19.72C118.12 19.55 118.61 19.33 118.99 19.08C119.37 18.83 119.7 18.57 119.97 18.31C120.24 18.05 120.45 17.83 120.56 17.64L120.74 17.39L122.73 19.16V19.15Z" fill="white"/>
<path d="M127.02 22.28H124.3V4.39H127.02V22.28Z" fill="white"/>
<path d="M129.7 4.31999C130.06 3.96999 130.49 3.78999 131 3.78999C131.51 3.78999 131.97 3.96999 132.34 4.31999C132.71 4.66999 132.89 5.10999 132.89 5.62999C132.89 6.14999 132.71 6.58999 132.34 6.93999C131.97 7.28999 131.52 7.46999 131 7.46999C130.48 7.46999 130.06 7.28999 129.7 6.93999C129.34 6.58999 129.16 6.14999 129.16 5.62999C129.16 5.10999 129.34 4.66999 129.7 4.31999ZM132.39 22.28H129.67V9.53999H132.39V22.28Z" fill="white"/>
<path d="M135.04 9.53999H137.76V11.41C137.79 11.36 137.84 11.29 137.89 11.2C137.94 11.11 138.07 10.94 138.27 10.71C138.47 10.47 138.69 10.27 138.94 10.09C139.18 9.90999 139.52 9.74999 139.96 9.60999C140.4 9.46999 140.86 9.39999 141.35 9.39999C142.29 9.39999 143.06 9.60999 143.65 10.04C144.24 10.47 144.63 10.95 144.84 11.49C144.87 11.44 144.92 11.36 144.98 11.26C145.04 11.16 145.18 10.99 145.41 10.76C145.64 10.53 145.88 10.31 146.14 10.13C146.4 9.93999 146.75 9.77999 147.2 9.62999C147.65 9.47999 148.11 9.39999 148.6 9.39999C149.98 9.39999 151.02 9.79999 151.73 10.61C152.44 11.42 152.79 12.49 152.79 13.84V22.29H150.07V14.39C150.07 12.61 149.35 11.72 147.9 11.72C146.99 11.72 146.33 12.03 145.91 12.64C145.49 13.25 145.28 14.07 145.28 15.07V22.29H142.56V14.34C142.56 13.57 142.39 12.94 142.04 12.45C141.7 11.96 141.14 11.72 140.39 11.72C139.5 11.72 138.84 12.03 138.42 12.64C138 13.25 137.79 14.07 137.79 15.07V22.29H135.07V9.54999L135.04 9.53999Z" fill="white"/>
<path d="M168.04 22.28H165.32V20.54C165.29 20.59 165.24 20.66 165.17 20.75C165.1 20.84 164.94 21 164.69 21.22C164.44 21.44 164.16 21.63 163.87 21.8C163.58 21.97 163.17 22.12 162.66 22.27C162.15 22.41 161.6 22.48 161.03 22.48C159.18 22.48 157.66 21.92 156.48 20.79C155.29 19.66 154.7 18.05 154.7 15.95C154.7 13.97 155.31 12.37 156.52 11.16C157.73 9.95 159.22 9.34 160.99 9.34C161.9 9.34 162.71 9.5 163.44 9.81C164.17 10.12 164.66 10.43 164.93 10.73L165.33 11.18V9.57H168.05V22.28H168.04ZM158.49 18.95C159.2 19.74 160.15 20.14 161.33 20.14C162.57 20.14 163.56 19.76 164.29 19C165.02 18.24 165.39 17.21 165.39 15.9C165.39 14.59 165.01 13.62 164.25 12.85C163.49 12.08 162.51 11.69 161.3 11.69C160.09 11.69 159.16 12.08 158.46 12.85C157.76 13.62 157.41 14.64 157.41 15.9C157.41 17.16 157.77 18.16 158.48 18.95H158.49Z" fill="white"/>
<path d="M169.42 9.53999H171.24V6.53999L173.96 5.75999V9.53999H176.31V11.68H173.96V18.64C173.96 19.18 174.04 19.56 174.2 19.8C174.36 20.04 174.65 20.15 175.07 20.15C175.24 20.15 175.7 20.07 176.46 19.9V22.09C175.75 22.36 174.97 22.49 174.11 22.49C173.15 22.49 172.43 22.23 171.95 21.72C171.47 21.21 171.23 20.31 171.23 19.03V11.66H169.41V9.51999L169.42 9.53999Z" fill="white"/>
<path d="M177.68 5.64999C178 5.33999 178.41 5.17999 178.9 5.17999C179.39 5.17999 179.79 5.33999 180.12 5.64999C180.44 5.95999 180.6 6.35999 180.6 6.84999C180.6 7.33999 180.44 7.73999 180.11 8.04999C179.79 8.35999 179.38 8.51999 178.9 8.51999C178.42 8.51999 178.01 8.36999 177.68 8.05999C177.36 7.74999 177.2 7.34999 177.2 6.85999C177.2 6.36999 177.36 5.96999 177.68 5.65999V5.64999ZM177.9 7.83999C178.16 8.09999 178.49 8.22999 178.9 8.22999C179.31 8.22999 179.64 8.09999 179.9 7.83999C180.16 7.57999 180.29 7.24999 180.29 6.83999C180.29 6.42999 180.16 6.10999 179.9 5.84999C179.64 5.58999 179.31 5.45999 178.9 5.45999C178.49 5.45999 178.16 5.58999 177.9 5.84999C177.64 6.10999 177.52 6.43999 177.52 6.83999C177.52 7.23999 177.65 7.56999 177.9 7.82999V7.83999ZM179.64 7.45999C179.64 7.45999 179.63 7.47999 179.61 7.49999C179.6 7.50999 179.57 7.53999 179.53 7.57999C179.49 7.61999 179.44 7.65999 179.39 7.67999C179.34 7.69999 179.27 7.73999 179.18 7.75999C179.1 7.77999 179.01 7.79999 178.91 7.79999C178.63 7.79999 178.4 7.71999 178.22 7.54999C178.04 7.37999 177.95 7.14999 177.95 6.84999C177.95 6.55999 178.04 6.32999 178.22 6.14999C178.4 5.96999 178.63 5.87999 178.9 5.87999C179.04 5.87999 179.17 5.90999 179.29 5.95999C179.41 6.00999 179.49 6.05999 179.53 6.10999L179.6 6.18999L179.37 6.43999C179.37 6.43999 179.34 6.40999 179.32 6.37999C179.3 6.35999 179.25 6.31999 179.17 6.27999C179.09 6.23999 179 6.21999 178.91 6.21999C178.75 6.21999 178.61 6.27999 178.51 6.38999C178.41 6.49999 178.35 6.64999 178.35 6.84999C178.35 7.04999 178.4 7.20999 178.52 7.31999C178.64 7.42999 178.77 7.47999 178.94 7.47999C179.04 7.47999 179.13 7.45999 179.21 7.41999C179.29 7.37999 179.35 7.33999 179.38 7.29999L179.42 7.23999L179.66 7.46999L179.64 7.45999Z" fill="white"/>
<path d="M32.65 7.81001C32.92 8.33001 33.17 8.87001 33.38 9.42001L29.94 10.3C28.67 5.75001 25.43 2.01001 21.21 0.0700073C26.05 0.560007 30.34 3.42001 32.65 7.80001V7.81001Z" fill="white"/>
<path d="M0 14.57C0 6.54 6.54 0 14.57 0C15.39 0 16.19 0.07 16.97 0.2C16.99 0.2 17 0.2 17.02 0.21C18.13 0.4 19.2 0.72 20.22 1.15C25.38 3.37 28.96 8.55 29.14 14.57C29.17 15.4 29.03 16.22 28.84 16.98C28.67 17.64 28.42 18.27 28.11 18.88C26.5 22.01 23.33 23.96 19.83 23.99C23.17 22.11 25.36 18.51 25.36 14.57C25.36 8.62 20.52 3.78 14.57 3.78C14.57 3.78 14.56 3.78 14.55 3.78C14.55 3.78 14.54 3.78 14.53 3.78C14.51 3.78 14.49 3.78 14.48 3.78C14.38 3.78 14.28 3.78 14.17 3.78C14.04 3.78 13.92 3.79 13.79 3.8C13.77 3.8 13.75 3.8 13.73 3.8C11.46 3.97 9.29 4.86 7.55 6.34C5.62 7.98 4.33 10.25 3.9 12.72C3.9 12.73 3.9 12.75 3.9 12.76C3.87 12.99 3.86 13.21 3.84 13.44C3.8 13.81 3.78 14.18 3.78 14.56C3.78 14.61 3.78 14.67 3.8 14.72C3.86 21.08 7.66 26.56 13.11 29.06C5.76 28.33 0 22.11 0 14.57Z" fill="white"/>
<path d="M32.69 21.26C30.17 26.12 25.21 29.15 19.74 29.15C11.7 29.15 5.17 22.61 5.17 14.58C5.17 14.26 5.18 13.93 5.2 13.6C5.69 8.9 9.65 5.22 14.46 5.17C11.12 7.05 8.94 10.62 8.94 14.59C8.94 20.54 13.78 25.38 19.73 25.38C23.78 25.38 27.46 23.14 29.33 19.52C29.61 18.97 29.85 18.41 30.03 17.82L33.66 18.87C33.41 19.69 33.08 20.5 32.68 21.26H32.69Z" fill="white"/>
</g>
<defs>
<clipPath id="clip0_2_2725">
<rect width="180.59" height="29.14" fill="white"/>
</clipPath>
</defs>
</svg>
